<mxfile host="Electron" modified="2023-06-16T21:00:08.442Z" agent="Mozilla/5.0 (Windows NT 10.0; Win64; x64) AppleWebKit/537.36 (KHTML, like Gecko) draw.io/21.4.0 Chrome/112.0.5615.204 Electron/24.5.1 Safari/537.36" etag="IfLb47tQQXkGmT-4mx-Y" version="21.4.0" type="device">
  <diagram name="Страница 1" id="D6iebtTlnamsbC1WVJgu">
    <mxGraphModel dx="1596" dy="868" grid="1" gridSize="10" guides="1" tooltips="1" connect="1" arrows="1" fold="1" page="1" pageScale="1" pageWidth="827" pageHeight="1169" math="0" shadow="0">
      <root>
        <mxCell id="0" />
        <mxCell id="1" parent="0" />
        <mxCell id="5dswsCgZ4ZqaHU0HXXHc-6" value="" style="edgeStyle=orthogonalEdgeStyle;rounded=0;orthogonalLoop=1;jettySize=auto;html=1;" edge="1" parent="1" source="5dswsCgZ4ZqaHU0HXXHc-1" target="5dswsCgZ4ZqaHU0HXXHc-2">
          <mxGeometry relative="1" as="geometry" />
        </mxCell>
        <mxCell id="5dswsCgZ4ZqaHU0HXXHc-1" value="Старт" style="rounded=1;whiteSpace=wrap;html=1;" vertex="1" parent="1">
          <mxGeometry x="354" y="30" width="120" height="60" as="geometry" />
        </mxCell>
        <mxCell id="5dswsCgZ4ZqaHU0HXXHc-7" value="" style="edgeStyle=orthogonalEdgeStyle;rounded=0;orthogonalLoop=1;jettySize=auto;html=1;" edge="1" parent="1" source="5dswsCgZ4ZqaHU0HXXHc-2" target="5dswsCgZ4ZqaHU0HXXHc-3">
          <mxGeometry relative="1" as="geometry" />
        </mxCell>
        <mxCell id="5dswsCgZ4ZqaHU0HXXHc-2" value="array[]" style="shape=parallelogram;perimeter=parallelogramPerimeter;whiteSpace=wrap;html=1;fixedSize=1;" vertex="1" parent="1">
          <mxGeometry x="354" y="130" width="120" height="60" as="geometry" />
        </mxCell>
        <mxCell id="5dswsCgZ4ZqaHU0HXXHc-8" value="" style="edgeStyle=orthogonalEdgeStyle;rounded=0;orthogonalLoop=1;jettySize=auto;html=1;" edge="1" parent="1" source="5dswsCgZ4ZqaHU0HXXHc-3" target="5dswsCgZ4ZqaHU0HXXHc-4">
          <mxGeometry relative="1" as="geometry" />
        </mxCell>
        <mxCell id="5dswsCgZ4ZqaHU0HXXHc-3" value="sum = 0;&lt;br&gt;mean = 0;" style="rounded=0;whiteSpace=wrap;html=1;" vertex="1" parent="1">
          <mxGeometry x="331" y="230" width="166" height="60" as="geometry" />
        </mxCell>
        <mxCell id="5dswsCgZ4ZqaHU0HXXHc-9" value="Yes" style="edgeStyle=orthogonalEdgeStyle;rounded=0;orthogonalLoop=1;jettySize=auto;html=1;" edge="1" parent="1" source="5dswsCgZ4ZqaHU0HXXHc-4" target="5dswsCgZ4ZqaHU0HXXHc-5">
          <mxGeometry relative="1" as="geometry" />
        </mxCell>
        <mxCell id="5dswsCgZ4ZqaHU0HXXHc-17" value="No" style="edgeStyle=orthogonalEdgeStyle;rounded=0;orthogonalLoop=1;jettySize=auto;html=1;" edge="1" parent="1" source="5dswsCgZ4ZqaHU0HXXHc-4">
          <mxGeometry relative="1" as="geometry">
            <mxPoint x="610" y="370" as="targetPoint" />
          </mxGeometry>
        </mxCell>
        <mxCell id="5dswsCgZ4ZqaHU0HXXHc-4" value="i = 0; i &amp;lt; array.length; i++" style="shape=hexagon;perimeter=hexagonPerimeter2;whiteSpace=wrap;html=1;fixedSize=1;" vertex="1" parent="1">
          <mxGeometry x="269" y="330" width="290" height="80" as="geometry" />
        </mxCell>
        <mxCell id="5dswsCgZ4ZqaHU0HXXHc-12" style="edgeStyle=orthogonalEdgeStyle;rounded=0;orthogonalLoop=1;jettySize=auto;html=1;entryX=0;entryY=0.5;entryDx=0;entryDy=0;" edge="1" parent="1" source="5dswsCgZ4ZqaHU0HXXHc-5" target="5dswsCgZ4ZqaHU0HXXHc-4">
          <mxGeometry relative="1" as="geometry">
            <Array as="points">
              <mxPoint x="249" y="490" />
              <mxPoint x="249" y="370" />
            </Array>
          </mxGeometry>
        </mxCell>
        <mxCell id="5dswsCgZ4ZqaHU0HXXHc-5" value="sum += array[i]" style="rounded=0;whiteSpace=wrap;html=1;" vertex="1" parent="1">
          <mxGeometry x="334" y="450" width="160" height="80" as="geometry" />
        </mxCell>
        <mxCell id="5dswsCgZ4ZqaHU0HXXHc-19" value="&lt;h1&gt;&lt;font size=&quot;3&quot;&gt;&lt;span style=&quot;font-weight: 400;&quot;&gt;4. Найти среднее арифиетическое всех элементов массива. (12)&lt;/span&gt;&lt;/font&gt;&lt;/h1&gt;" style="text;html=1;strokeColor=none;fillColor=none;spacing=5;spacingTop=-20;whiteSpace=wrap;overflow=hidden;rounded=0;" vertex="1" parent="1">
          <mxGeometry x="110" y="30" width="200" height="120" as="geometry" />
        </mxCell>
        <mxCell id="5dswsCgZ4ZqaHU0HXXHc-22" value="" style="edgeStyle=orthogonalEdgeStyle;rounded=0;orthogonalLoop=1;jettySize=auto;html=1;" edge="1" parent="1" source="5dswsCgZ4ZqaHU0HXXHc-20" target="5dswsCgZ4ZqaHU0HXXHc-21">
          <mxGeometry relative="1" as="geometry" />
        </mxCell>
        <mxCell id="5dswsCgZ4ZqaHU0HXXHc-20" value="mean = sum / array.length" style="shape=document;whiteSpace=wrap;html=1;boundedLbl=1;" vertex="1" parent="1">
          <mxGeometry x="610" y="330" width="150" height="80" as="geometry" />
        </mxCell>
        <mxCell id="5dswsCgZ4ZqaHU0HXXHc-21" value="Конец" style="rounded=1;whiteSpace=wrap;html=1;" vertex="1" parent="1">
          <mxGeometry x="625" y="460" width="120" height="60" as="geometry" />
        </mxCell>
      </root>
    </mxGraphModel>
  </diagram>
</mxfile>
